<?xml version="1.0" encoding="utf-8"?>
<!-- Generator: Adobe Illustrator 16.0.0, SVG Export Plug-In . SVG Version: 6.00 Build 0)  -->
<!DOCTYPE svg PUBLIC "-//W3C//DTD SVG 1.1//EN" "http://www.w3.org/Graphics/SVG/1.1/DTD/svg11.dtd">
<svg version="1.1" id="Add_Friend_Icon" xmlns="http://www.w3.org/2000/svg" xmlns:xlink="http://www.w3.org/1999/xlink" x="0px"
	 y="0px" width="20px" height="20px" viewBox="0 0 20 20" enable-background="new 0 0 20 20" xml:space="preserve">
<g>
	<g>
		<path fill-rule="evenodd" clip-rule="evenodd" fill="#FFFFFF" d="M10,13c-1.305,0-2.403-0.838-2.816-2H5.101
			c0.464,2.282,2.48,4,4.899,4s4.436-1.718,4.899-4h-2.083C12.403,12.162,11.305,13,10,13z M7,7H5v2h2V7z M13,7v2h2V7H13z"/>
	</g>
</g>
<polygon fill-rule="evenodd" clip-rule="evenodd" fill="#FFFFFF" points="20,2 18,2 18,0 16,0 16,2 14,2 14,4 16,4 16,6 18,6 18,4 
	20,4 "/>
<path fill-rule="evenodd" clip-rule="evenodd" fill="#FFFFFF" d="M17.738,8C17.903,8.64,18,9.308,18,10c0,4.418-3.582,8-8,8
	s-8-3.582-8-8c0-4.418,3.582-8,8-8c0.692,0,1.359,0.097,2,0.262V0.201C11.354,0.07,10.685,0,10,0C4.477,0,0,4.478,0,10
	c0,5.523,4.477,10,10,10c5.522,0,10-4.477,10-10c0-0.685-0.069-1.354-0.201-2H17.738z"/>
</svg>
