<?xml version="1.0" encoding="utf-8"?>
<!-- Generator: Adobe Illustrator 16.0.0, SVG Export Plug-In . SVG Version: 6.00 Build 0)  -->
<!DOCTYPE svg PUBLIC "-//W3C//DTD SVG 1.1//EN" "http://www.w3.org/Graphics/SVG/1.1/DTD/svg11.dtd">
<svg version="1.1" id="Behance_Icon" xmlns="http://www.w3.org/2000/svg" xmlns:xlink="http://www.w3.org/1999/xlink" x="0px"
	 y="0px" width="100px" height="100px" viewBox="0 0 100 100" enable-background="new 0 0 100 100" xml:space="preserve">
<path fill-rule="evenodd" clip-rule="evenodd" fill="#FFFFFF" d="M99.827,61.223H68.064c0,3.648,0.755,10.949,10.776,10.949
	s9.643-6.916,9.643-6.916H99.26c0,18.249-20.986,16.713-20.986,16.713c-24.012,0-23.822-20.746-23.822-20.746
	c0-5.668-0.095-27.087,24.39-27.087S99.827,61.223,99.827,61.223z M78.273,43.356c-9.714,0-10.209,9.221-10.209,9.221h19.852
	C87.916,52.577,87.987,43.356,78.273,43.356z M64.661,21.458h26.091v8.067H64.661V21.458z M35.166,80.799v0.016H0V18h34.032
	c0,0,0.024,0,0.062,0h1.072v0.054c3.628,0.299,14.748,2.292,14.748,15.506c0,0,1.144,10.259-7.661,12.951
	c4.671,0.871,9.93,4.394,9.93,15.863C52.183,62.373,53.762,80.43,35.166,80.799z M33.465,29.525H14.748V42.78h18.15
	c0,0,3.97-1.057,3.97-6.915C36.868,30.006,33.465,29.525,33.465,29.525z M34.032,53.154H14.748V69.29h18.717
	c0,0,5.672-1.249,5.672-8.067C39.137,54.402,34.032,53.154,34.032,53.154z"/>
</svg>
