<?xml version="1.0" encoding="utf-8"?>
<!-- Generator: Adobe Illustrator 16.0.0, SVG Export Plug-In . SVG Version: 6.00 Build 0)  -->
<!DOCTYPE svg PUBLIC "-//W3C//DTD SVG 1.1//EN" "http://www.w3.org/Graphics/SVG/1.1/DTD/svg11.dtd">
<svg version="1.1" id="Big_View_Icon" xmlns="http://www.w3.org/2000/svg" xmlns:xlink="http://www.w3.org/1999/xlink" x="0px"
	 y="0px" width="20px" height="20px" viewBox="0 0 20 20" enable-background="new 0 0 20 20" xml:space="preserve">
<path fill-rule="evenodd" clip-rule="evenodd" fill="#FFFFFF" d="M16,20H4c-2.209,0-4-1.791-4-4V4c0-2.209,1.791-4,4-4h12
	c2.209,0,4,1.791,4,4v12C20,18.209,18.209,20,16,20z M2,16c0,1.102,0.896,2,2,2h5v-7H2V16z M4,2C2.896,2,2,2.896,2,4v5h7V2H4z M18,4
	c0-1.104-0.897-2-2-2h-5v7h7V4z M18,11h-7v7h5c1.103,0,2-0.898,2-2V11z"/>
</svg>
