<?xml version="1.0" encoding="utf-8"?>
<!-- Generator: Adobe Illustrator 16.0.0, SVG Export Plug-In . SVG Version: 6.00 Build 0)  -->
<!DOCTYPE svg PUBLIC "-//W3C//DTD SVG 1.1//EN" "http://www.w3.org/Graphics/SVG/1.1/DTD/svg11.dtd">
<svg version="1.1" id="Blos_Posts_Icon" xmlns="http://www.w3.org/2000/svg" xmlns:xlink="http://www.w3.org/1999/xlink" x="0px"
	 y="0px" width="20px" height="20px" viewBox="0 0 20 20" enable-background="new 0 0 20 20" xml:space="preserve">
<g>
	<path fill="#FFFFFF" d="M15,0H5C2.791,0,1,1.791,1,4v3v2v7c0,2.209,1.791,4,4,4h10c2.209,0,4-1.791,4-4V9V7V4
		C19,1.791,17.209,0,15,0z M17,16c0,1.103-0.897,2-2,2H5c-1.103,0-2-0.897-2-2V9h14V16z M3,7V4c0-1.103,0.897-2,2-2h10
		c1.103,0,2,0.897,2,2v3H3z"/>
	<rect x="5" y="11" fill="#FFFFFF" width="10" height="2"/>
	<rect x="13" y="14" fill="#FFFFFF" width="2" height="2"/>
	<rect x="5" y="14" fill="#FFFFFF" width="6" height="2"/>
</g>
</svg>
