<?xml version="1.0" encoding="utf-8"?>
<!-- Generator: Adobe Illustrator 16.0.0, SVG Export Plug-In . SVG Version: 6.00 Build 0)  -->
<!DOCTYPE svg PUBLIC "-//W3C//DTD SVG 1.1//EN" "http://www.w3.org/Graphics/SVG/1.1/DTD/svg11.dtd">
<svg version="1.1" id="Camera_Icon" xmlns="http://www.w3.org/2000/svg" xmlns:xlink="http://www.w3.org/1999/xlink" x="0px"
	 y="0px" width="20px" height="20px" viewBox="0 0 20 20" enable-background="new 0 0 20 20" xml:space="preserve">
<path fill="#FFFFFF" d="M13.018,2C13.505,2,13.81,2.018,14,2.041v1.964h2c1.103,0,2,0.896,2,1.999v9.998C18,17.104,17.103,18,16,18
	H4c-1.103,0-2-0.896-2-1.999V6.003c0-1.102,0.897-1.999,2-1.999h2V2.041C6.19,2.018,6.496,2,6.983,2l0.473,0.002L8,2.005h4
	l0.544-0.003L13.018,2 M13.018,0C12.692,0,12.352,0.005,12,0.005H8C7.648,0.005,7.308,0,6.983,0C5.267,0,4,0.148,4,2.005
	c-2.209,0-4,1.791-4,3.999v9.998C0,18.21,1.791,20,4,20h12c2.209,0,4-1.79,4-3.999V6.003c0-2.208-1.791-3.999-4-3.999
	C16,0.148,14.733,0,13.018,0L13.018,0z"/>
<path fill="#FFFFFF" d="M10,10c1.103,0,2,0.896,2,2c0,1.103-0.897,2-2,2c-1.103,0-2-0.897-2-2C8,10.896,8.897,10,10,10 M10,8
	c-2.209,0-4,1.791-4,4s1.791,4,4,4s4-1.791,4-4S12.209,8,10,8L10,8z"/>
<path fill-rule="evenodd" clip-rule="evenodd" fill="#FFFFFF" d="M15,6c0.553,0,1,0.448,1,1c0,0.553-0.447,1-1,1s-1-0.447-1-1
	C14,6.448,14.447,6,15,6z"/>
</svg>
