<?xml version="1.0" encoding="utf-8"?>
<!-- Generator: Adobe Illustrator 16.0.0, SVG Export Plug-In . SVG Version: 6.00 Build 0)  -->
<!DOCTYPE svg PUBLIC "-//W3C//DTD SVG 1.1//EN" "http://www.w3.org/Graphics/SVG/1.1/DTD/svg11.dtd">
<svg version="1.1" id="Clock_Icon" xmlns="http://www.w3.org/2000/svg" xmlns:xlink="http://www.w3.org/1999/xlink" x="0px" y="0px"
	 width="20px" height="20px" viewBox="0 0 20 20" enable-background="new 0 0 20 20" xml:space="preserve">
<g>
	<g>
		<path fill="#FFFFFF" d="M10,0C4.486,0,0,4.485,0,9.999c0,5.515,4.486,10,10,10c5.514,0,10-4.485,10-10C20,4.485,15.514,0,10,0z
			 M10,17.999c-4.414,0-8.005-3.589-8.005-8S5.586,2,10,2c4.414,0,8.005,3.588,8.005,7.999S14.414,17.999,10,17.999z M14.437,12.105
			l-3.44-1.724V4.999C10.997,4.447,10.551,4,10,4S9.002,4.447,9.002,4.999V11c0,0.379,0.213,0.725,0.551,0.894l3.99,2
			C13.687,13.966,13.838,14,13.988,14c0.367,0,0.719-0.203,0.894-0.554C15.128,12.953,14.929,12.352,14.437,12.105z"/>
	</g>
</g>
</svg>
