<?xml version="1.0" encoding="utf-8"?>
<!-- Generator: Adobe Illustrator 16.0.0, SVG Export Plug-In . SVG Version: 6.00 Build 0)  -->
<!DOCTYPE svg PUBLIC "-//W3C//DTD SVG 1.1//EN" "http://www.w3.org/Graphics/SVG/1.1/DTD/svg11.dtd">
<svg version="1.1" id="Comment_Icon" xmlns="http://www.w3.org/2000/svg" xmlns:xlink="http://www.w3.org/1999/xlink" x="0px"
	 y="0px" width="20px" height="20px" viewBox="0 0 20 20" enable-background="new 0 0 20 20" xml:space="preserve">
<path fill="#FFFFFF" d="M15,2c1.654,0,3,1.257,3,2.803v6.404c0,1.546-1.346,2.803-3,2.803H7.98H7.508l-0.422,0.211L2,16.764v-5.557
	V10V4.803C2,3.257,3.346,2,5,2H15 M15,0H5C2.238,0,0,2.15,0,4.803V10v1.207V20l7.98-3.99H15c2.762,0,5-2.15,5-4.803V4.803
	C20,2.15,17.762,0,15,0L15,0z"/>
<g>
	<path fill-rule="evenodd" clip-rule="evenodd" fill="#FFFFFF" d="M14,5H6C5.447,5,5,5.448,5,6c0,0.553,0.447,1,1,1h8
		c0.553,0,1-0.447,1-1C15,5.448,14.553,5,14,5z M10,9H6c-0.553,0-1,0.447-1,1s0.447,1,1,1h4c0.553,0,1-0.447,1-1S10.553,9,10,9z"/>
</g>
</svg>
