<?xml version="1.0" encoding="utf-8"?>
<!-- Generator: Adobe Illustrator 16.0.0, SVG Export Plug-In . SVG Version: 6.00 Build 0)  -->
<!DOCTYPE svg PUBLIC "-//W3C//DTD SVG 1.1//EN" "http://www.w3.org/Graphics/SVG/1.1/DTD/svg11.dtd">
<svg version="1.1" id="Delete_Icon" xmlns="http://www.w3.org/2000/svg" xmlns:xlink="http://www.w3.org/1999/xlink" x="0px"
	 y="0px" width="20px" height="20px" viewBox="0 0 20 20" enable-background="new 0 0 20 20" xml:space="preserve">
<path fill-rule="evenodd" clip-rule="evenodd" fill="#FFFFFF" d="M10,20C4.477,20,0,15.523,0,10C0,4.478,4.477,0,10,0
	C15.522,0,20,4.478,20,10C20,15.523,15.522,20,10,20z M10,2c-4.418,0-8,3.582-8,8c0,4.418,3.582,8,8,8s8-3.582,8-8
	C18,5.582,14.418,2,10,2z M12.662,13.994L10,11.332l-2.662,2.662l-1.331-1.33l2.662-2.663L6.007,7.339l1.331-1.331L10,8.67
	l2.662-2.662l1.331,1.331l-2.662,2.662l2.662,2.663L12.662,13.994z"/>
</svg>
