<?xml version="1.0" encoding="utf-8"?>
<!-- Generator: Adobe Illustrator 16.0.0, SVG Export Plug-In . SVG Version: 6.00 Build 0)  -->
<!DOCTYPE svg PUBLIC "-//W3C//DTD SVG 1.1//EN" "http://www.w3.org/Graphics/SVG/1.1/DTD/svg11.dtd">
<svg version="1.1" id="Dribbble_Icon" xmlns="http://www.w3.org/2000/svg" xmlns:xlink="http://www.w3.org/1999/xlink" x="0px"
	 y="0px" width="12px" height="12px" viewBox="0 0 12 12" enable-background="new 0 0 12 12" xml:space="preserve">
<path fill-rule="evenodd" clip-rule="evenodd" fill="#FFFFFF" d="M6,11.999c-3.313,0-6-2.687-6-6c0-3.313,2.687-6,6-6s6,2.686,6,6
	C12,9.313,9.313,11.999,6,11.999z M7.434,4.992C7.585,5.295,7.728,5.599,7.86,5.896c0.814-0.135,1.696-0.139,2.634,0.046
	c-0.01-0.874-0.272-1.686-0.713-2.373C9.062,4.167,8.257,4.632,7.434,4.992z M9.104,9.244c0.599-0.573,1.036-1.31,1.247-2.138
	c-0.484-0.085-1.184-0.15-2.008-0.054C8.681,7.915,8.935,8.684,9.104,9.244z M5.994,10.495c0.708,0,1.375-0.167,1.972-0.459
	C7.812,9.095,7.532,8.167,7.188,7.285C6.014,7.624,4.701,8.333,3.44,9.7C4.166,10.2,5.045,10.495,5.994,10.495z M2.556,8.897
	c0.8-0.837,2.245-2.097,4.159-2.722C6.593,5.913,6.466,5.659,6.337,5.409C4.395,6.05,2.505,6.189,1.501,6.212
	C1.551,7.233,1.938,8.165,2.556,8.897z M1.593,5.048c1.733-0.13,3.096-0.387,4.16-0.7c-0.613-1.05-1.216-1.906-1.624-2.45
	C2.851,2.481,1.894,3.642,1.593,5.048z M5.994,1.49c-0.258,0-0.509,0.027-0.754,0.068C5.864,2.29,6.409,3.113,6.885,3.955
	c1.091-0.447,1.737-0.937,2.108-1.311C8.197,1.929,7.148,1.49,5.994,1.49z"/>
</svg>
