<?xml version="1.0" encoding="utf-8"?>
<!-- Generator: Adobe Illustrator 16.0.0, SVG Export Plug-In . SVG Version: 6.00 Build 0)  -->
<!DOCTYPE svg PUBLIC "-//W3C//DTD SVG 1.1//EN" "http://www.w3.org/Graphics/SVG/1.1/DTD/svg11.dtd">
<svg version="1.1" id="Earnings_Icon" xmlns="http://www.w3.org/2000/svg" xmlns:xlink="http://www.w3.org/1999/xlink" x="0px"
	 y="0px" width="20px" height="20px" viewBox="0 0 20 20" enable-background="new 0 0 20 20" xml:space="preserve">
<path fill-rule="evenodd" clip-rule="evenodd" fill="#FFFFFF" d="M16,20h-1v-2h1c1.103,0,2-0.897,2-2v-1h2v1
	C20,18.209,18.209,20,16,20z M18,11h2v2h-2V11z M18,7h2v2h-2V7z M18,4c0-1.103-0.897-2-2-2h-1V0h1c2.209,0,4,1.791,4,4v1h-2V4z
	 M8.75,9h2.5C12.767,9,14,10.346,14,12s-1.233,3-2.75,3H11v1H9v-1H7c-0.553,0-1-0.447-1-1s0.447-1,1-1h2h2h0.25
	c0.406,0,0.75-0.458,0.75-1s-0.344-1-0.75-1h-2.5C7.233,11,6,9.654,6,8s1.233-3,2.75-3H9V4h2v1h1.5c0.553,0,1,0.448,1,1
	s-0.447,1-1,1H11H9H8.75C8.344,7,8,7.458,8,8S8.344,9,8.75,9z M11,0h2v2h-2V0z M7,0h2v2H7V0z M0,16v-1h2v1c0,1.103,0.896,2,2,2h1v2
	H4C1.791,20,0,18.209,0,16z M2,4v1H0V4c0-2.209,1.791-4,4-4h1v2H4C2.896,2,2,2.897,2,4z M2,7v2H0V7H2z M2,13H0v-2h2V13z M9,20H7v-2
	h2V20z M13,20h-2v-2h2V20z"/>
</svg>
