<?xml version="1.0" encoding="utf-8"?>
<!-- Generator: Adobe Illustrator 16.0.0, SVG Export Plug-In . SVG Version: 6.00 Build 0)  -->
<!DOCTYPE svg PUBLIC "-//W3C//DTD SVG 1.1//EN" "http://www.w3.org/Graphics/SVG/1.1/DTD/svg11.dtd">
<svg version="1.1" id="Events_Icon" xmlns="http://www.w3.org/2000/svg" xmlns:xlink="http://www.w3.org/1999/xlink" x="0px"
	 y="0px" width="20px" height="20px" viewBox="0 0 20 20" enable-background="new 0 0 20 20" xml:space="preserve">
<path fill="#FFFFFF" d="M16,2H4C1.791,2,0,3.791,0,6v10c0,2.209,1.791,4,4,4h12c2.209,0,4-1.791,4-4V6C20,3.791,18.209,2,16,2z
	 M18,16c0,1.103-0.897,2-2,2H4c-1.103,0-2-0.897-2-2V6c0-1.103,0.897-2,2-2h12c1.103,0,2,0.897,2,2V16z"/>
<g>
	<g>
		<path fill-rule="evenodd" clip-rule="evenodd" fill="#FFFFFF" d="M0,8v2h20V8H0z M7,0H5v6h2V0z M15,0h-2v6h2V0z"/>
	</g>
</g>
</svg>
