<?xml version="1.0" encoding="utf-8"?>
<!-- Generator: Adobe Illustrator 16.0.0, SVG Export Plug-In . SVG Version: 6.00 Build 0)  -->
<!DOCTYPE svg PUBLIC "-//W3C//DTD SVG 1.1//EN" "http://www.w3.org/Graphics/SVG/1.1/DTD/svg11.dtd">
<svg version="1.1" id="Forums_Icon" xmlns="http://www.w3.org/2000/svg" xmlns:xlink="http://www.w3.org/1999/xlink" x="0px"
	 y="0px" width="20px" height="20px" viewBox="0 0 20 20" enable-background="new 0 0 20 20" xml:space="preserve">
<g>
	<path fill="#FFFFFF" d="M16,0H4C1.791,0,0,1.592,0,3.556V6v2v4.444C0,14.408,1.791,16,4,16h2l4,4l4-4h2c2.209,0,4-1.592,4-3.556V8
		V6V3.556C20,1.592,18.209,0,16,0z M18,12.444C18,13.287,17.084,14,16,14h-2h-0.828l-0.586,0.586L10,17.172l-2.586-2.586L6.829,14H6
		H4c-1.084,0-2-0.713-2-1.556V8h16V12.444z M2,6V3.556C2,2.712,2.916,2,4,2h12c1.084,0,2,0.712,2,1.556V6H2z"/>
	<rect x="4" y="3" fill="#FFFFFF" width="2" height="2"/>
	<rect x="10" y="3" fill="#FFFFFF" width="2" height="2"/>
	<rect x="7" y="3" fill="#FFFFFF" width="2" height="2"/>
</g>
</svg>
