<?xml version="1.0" encoding="utf-8"?>
<!-- Generator: Adobe Illustrator 16.0.0, SVG Export Plug-In . SVG Version: 6.00 Build 0)  -->
<!DOCTYPE svg PUBLIC "-//W3C//DTD SVG 1.1//EN" "http://www.w3.org/Graphics/SVG/1.1/DTD/svg11.dtd">
<svg version="1.1" id="GIF_Icon" xmlns="http://www.w3.org/2000/svg" xmlns:xlink="http://www.w3.org/1999/xlink" x="0px" y="0px"
	 width="20px" height="20px" viewBox="0 0 20 20" enable-background="new 0 0 20 20" xml:space="preserve">
<g>
	<g>
		<path fill-rule="evenodd" clip-rule="evenodd" fill="#FFFFFF" d="M3.676,5.098L2.243,3.665C1.025,5.153,0.201,6.975,0,8.995h2.053
			C2.237,7.534,2.822,6.206,3.676,5.098z M8.995,2.028V0C6.974,0.201,5.152,1.025,3.664,2.243l1.429,1.428
			C6.199,2.807,7.527,2.212,8.995,2.028z M16.336,2.243C14.847,1.025,13.025,0.201,11.006,0v2.028
			c1.468,0.184,2.795,0.778,3.902,1.643L16.336,2.243z M17.947,8.995H20c-0.201-2.021-1.025-3.842-2.242-5.33l-1.435,1.433
			C17.179,6.206,17.764,7.534,17.947,8.995z M2.053,11.005H0c0.201,2.021,1.025,3.842,2.243,5.33l1.433-1.434
			C2.822,13.793,2.237,12.466,2.053,11.005z M11.006,17.971V20c2.02-0.2,3.841-1.025,5.33-2.243l-1.428-1.428
			C13.801,17.193,12.474,17.787,11.006,17.971z M3.664,17.757C5.152,18.975,6.974,19.8,8.995,20v-2.029
			c-1.468-0.184-2.796-0.777-3.902-1.642L3.664,17.757z M16.323,14.901l1.435,1.434c1.217-1.488,2.041-3.31,2.242-5.33h-2.053
			C17.764,12.466,17.179,13.793,16.323,14.901z M15.025,11.005v-2.01H10v2.01h2.831c-0.416,1.168-1.521,2.01-2.831,2.01
			c-1.666,0-3.016-1.35-3.016-3.016c0-1.665,1.35-3.015,3.016-3.015h3.998C13.08,5.771,11.64,4.974,10,4.974
			c-2.776,0-5.026,2.25-5.026,5.025c0,2.774,2.25,5.025,5.026,5.025C12.432,15.024,14.56,13.298,15.025,11.005z"/>
	</g>
</g>
</svg>
