<?xml version="1.0" encoding="utf-8"?>
<!-- Generator: Adobe Illustrator 16.0.0, SVG Export Plug-In . SVG Version: 6.00 Build 0)  -->
<!DOCTYPE svg PUBLIC "-//W3C//DTD SVG 1.1//EN" "http://www.w3.org/Graphics/SVG/1.1/DTD/svg11.dtd">
<svg version="1.1" id="Google_Icon" xmlns="http://www.w3.org/2000/svg" xmlns:xlink="http://www.w3.org/1999/xlink" x="0px"
	 y="0px" width="100px" height="100px" viewBox="0 0 100 100" enable-background="new 0 0 100 100" xml:space="preserve">
<path fill-rule="evenodd" clip-rule="evenodd" fill="#FFFFFF" d="M100,47.82H89.963v9.785H79.927V47.82H69.89v-9.784h10.037v-9.784
	h10.036v9.784H100V47.82z M32.358,83C14.487,83,0,68.226,0,50c0-18.226,14.487-33,32.358-33c8.594,0,16.384,3.437,22.173,9.013
	l-0.6,0.612L45,35.734c-3.349-3.087-7.773-4.984-12.642-4.984c-10.426,0-18.877,8.619-18.877,19.25
	c0,10.632,8.451,19.25,18.877,19.25c8.046,0,14.898-5.143,17.614-12.375l-15.21,0.729V42.927l28.606,0.199v1.375v12.375v2.516
	C59.4,73.038,47.028,83,32.358,83z"/>
</svg>
