<?xml version="1.0" encoding="utf-8"?>
<!-- Generator: Adobe Illustrator 16.0.0, SVG Export Plug-In . SVG Version: 6.00 Build 0)  -->
<!DOCTYPE svg PUBLIC "-//W3C//DTD SVG 1.1//EN" "http://www.w3.org/Graphics/SVG/1.1/DTD/svg11.dtd">
<svg version="1.1" id="Groups_Icon" xmlns="http://www.w3.org/2000/svg" xmlns:xlink="http://www.w3.org/1999/xlink" x="0px"
	 y="0px" width="20px" height="20px" viewBox="0 0 20 20" enable-background="new 0 0 20 20" xml:space="preserve">
<path fill="#FFFFFF" d="M10,2c1.654,0,3,1.346,3,3s-1.346,3-3,3S7,6.654,7,5S8.346,2,10,2 M10,0C7.238,0,5,2.238,5,5s2.238,5,5,5
	s5-2.238,5-5S12.762,0,10,0L10,0z"/>
<path fill="#FFFFFF" d="M3,20v-2c0-2.205,1.794-4,4-4h6c2.206,0,4,1.795,4,4v2h2v-2c0-3.313-2.687-6-6-6H7c-3.313,0-6,2.687-6,6v2H3
	z"/>
<path fill="#FFFFFF" d="M20,8.05c-1.13,0-2.05-0.919-2.05-2.05S18.87,3.95,20,3.95v-2c-2.236,0-4.05,1.813-4.05,4.05
	s1.813,4.05,4.05,4.05V8.05z"/>
<path fill="#FFFFFF" d="M0,8.05C1,8.05,2.05,7.13,2.05,6S1,3.95,0,3.95v-2c2,0,4.05,1.813,4.05,4.05S2,10.05,0,10.05V8.05z"/>
</svg>
