<?xml version="1.0" encoding="utf-8"?>
<!-- Generator: Adobe Illustrator 16.0.0, SVG Export Plug-In . SVG Version: 6.00 Build 0)  -->
<!DOCTYPE svg PUBLIC "-//W3C//DTD SVG 1.1//EN" "http://www.w3.org/Graphics/SVG/1.1/DTD/svg11.dtd">
<svg version="1.1" id="Info_Icon" xmlns="http://www.w3.org/2000/svg" xmlns:xlink="http://www.w3.org/1999/xlink" x="0px" y="0px"
	 width="20px" height="20px" viewBox="0 0 20 20" enable-background="new 0 0 20 20" xml:space="preserve">
<g>
	<g>
		<path fill="#FFFFFF" d="M9,15h2V9H9V15z M9,7h2V5H9V7z M16-0.001H4c-2.209,0-4,1.791-4,4v12c0,2.209,1.791,4,4,4h12
			c2.209,0,4-1.791,4-4v-12C20,1.79,18.209-0.001,16-0.001z M18,15.999C18,17.102,17.103,18,16,18H4c-1.103,0-2-0.898-2-2.001v-12
			c0-1.103,0.897-2,2-2h12c1.103,0,2,0.897,2,2V15.999z"/>
	</g>
</g>
</svg>
