<?xml version="1.0" encoding="utf-8"?>
<!-- Generator: Adobe Illustrator 16.0.0, SVG Export Plug-In . SVG Version: 6.00 Build 0)  -->
<!DOCTYPE svg PUBLIC "-//W3C//DTD SVG 1.1//EN" "http://www.w3.org/Graphics/SVG/1.1/DTD/svg11.dtd">
<svg version="1.1" id="Item_Icon" xmlns="http://www.w3.org/2000/svg" xmlns:xlink="http://www.w3.org/1999/xlink" x="0px" y="0px"
	 width="20px" height="20px" viewBox="0 0 20 20" enable-background="new 0 0 20 20" xml:space="preserve">
<path fill="#FFFFFF" d="M19,5h-1.952C17.209,4,17.3,3.943,17.3,3.5c0-1.792-1.458-3.375-3.25-3.375
	c-2.035,0-3.296,1.306-4.049,2.653C9.248,1.431,7.985,0.031,5.95,0.031c-1.792,0-3.25,1.692-3.25,3.484C2.7,3.958,2.791,4,2.952,5H1
	C0.448,5,0,4.948,0,5.5V10c0,0.552,0.448,1,1,1h1v5c0,2.209,1.791,4,4,4h3h2h3c2.209,0,4-1.791,4-4v-5h1c0.553,0,1-0.448,1-1V5.5
	C20,4.948,19.553,5,19,5z M14.05,2.25c0.689,0,1.25,0.686,1.25,1.375S14.739,5,14.05,5h-2.693C11.788,3,12.626,2.25,14.05,2.25z
	 M5.95,2.375C7.375,2.375,8.212,3,8.644,5H5.95C5.261,5,4.7,4.189,4.7,3.5S5.261,2.375,5.95,2.375z M9,18H6c-1.103,0-2-0.897-2-2v-5
	h5V18z M16,16c0,1.103-0.897,2-2,2h-3v-7h5V16z M18,9h-4h-3H9H5H2V7h3h0.95H9h2h3h0.05H18V9z"/>
</svg>
