<?xml version="1.0" encoding="utf-8"?>
<!-- Generator: Adobe Illustrator 16.0.0, SVG Export Plug-In . SVG Version: 6.00 Build 0)  -->
<!DOCTYPE svg PUBLIC "-//W3C//DTD SVG 1.1//EN" "http://www.w3.org/Graphics/SVG/1.1/DTD/svg11.dtd">
<svg version="1.1" id="Join_Group_Icon" xmlns="http://www.w3.org/2000/svg" xmlns:xlink="http://www.w3.org/1999/xlink" x="0px"
	 y="0px" width="20px" height="20px" viewBox="0 0 20 20" enable-background="new 0 0 20 20" xml:space="preserve">
<g>
	<g>
		<path fill="#FFFFFF" d="M10,9.999c2.762,0,5-2.238,5-5s-2.238-5-5-5s-5,2.238-5,5S7.238,9.999,10,9.999z M10,1.999
			c1.654,0,3,1.346,3,3s-1.346,3-3,3s-3-1.346-3-3S8.346,1.999,10,1.999z M20,3.949v-2c-2.236,0-4.05,1.813-4.05,4.05
			c0,2.236,1.813,4.05,4.05,4.05v-2c-1.13,0-2.05-0.92-2.05-2.05C17.95,4.869,18.87,3.949,20,3.949z M4.05,5.999
			C4.05,3.762,2,1.949,0,1.949v2c1,0,2.05,0.919,2.05,2.05c0,1.13-1.05,2.05-2.05,2.05v2C2,10.049,4.05,8.235,4.05,5.999z
			 M11,13.999H9v2H7v2h2v2h2v-2h2v-2h-2V13.999z M7,11.999c-3.313,0-6,2.687-6,6v2h2v-2c0-2.205,1.794-4,4-4V11.999z M13,11.999v2
			c2.206,0,4,1.795,4,4v2h2v-2C19,14.686,16.313,11.999,13,11.999z"/>
	</g>
</g>
</svg>
