<?xml version="1.0" encoding="utf-8"?>
<!-- Generator: Adobe Illustrator 16.0.0, SVG Export Plug-In . SVG Version: 6.00 Build 0)  -->
<!DOCTYPE svg PUBLIC "-//W3C//DTD SVG 1.1//EN" "http://www.w3.org/Graphics/SVG/1.1/DTD/svg11.dtd">
<svg version="1.1" id="Marketplace_Icon" xmlns="http://www.w3.org/2000/svg" xmlns:xlink="http://www.w3.org/1999/xlink" x="0px"
	 y="0px" width="20px" height="20px" viewBox="0 0 20 20" enable-background="new 0 0 20 20" xml:space="preserve">
<path fill="#FFFFFF" d="M18,6h-0.5L16,0h-4v2h2.438l1,4H4.562l1-4H8V0H4L2.5,6H2C0.896,6,0,6.896,0,8v2c0,0.738,0.405,1.376,1,1.723
	v0.276C1,12,1,12,1,12l1,6c0,1.104,0.896,2,2,2h12c1.104,0,2-0.896,2-2l1-6v-0.277c0.596-0.347,1-0.984,1-1.723V8
	C20,6.896,19.104,6,18,6z M2,8h16v2h-0.999H17H3H2.999H2V8z M16.027,17.671L16,17.834V18H4v-0.165l-0.027-0.164L3.028,12h13.945
	L16.027,17.671z"/>
</svg>
