<?xml version="1.0" encoding="utf-8"?>
<!-- Generator: Adobe Illustrator 16.0.0, SVG Export Plug-In . SVG Version: 6.00 Build 0)  -->
<!DOCTYPE svg PUBLIC "-//W3C//DTD SVG 1.1//EN" "http://www.w3.org/Graphics/SVG/1.1/DTD/svg11.dtd">
<svg version="1.1" id="Members_Icon" xmlns="http://www.w3.org/2000/svg" xmlns:xlink="http://www.w3.org/1999/xlink" x="0px"
	 y="0px" width="20px" height="20px" viewBox="0 0 20 20" enable-background="new 0 0 20 20" xml:space="preserve">
<g>
	<g>
		<path fill="#FFFFFF" d="M10,10c2.762,0,5-2.238,5-5c0-2.762-2.238-5-5-5S5,2.238,5,5C5,7.761,7.238,10,10,10z M10,2
			c1.654,0,3,1.346,3,3s-1.346,3-3,3S7,6.654,7,5S8.346,2,10,2z M13,12H7c-3.313,0-6,2.686-6,6v2h2v-2c0-2.205,1.794-4,4-4h6
			c2.206,0,4,1.795,4,4v2h2v-2C19,14.686,16.313,12,13,12z"/>
	</g>
</g>
</svg>
