<?xml version="1.0" encoding="utf-8"?>
<!-- Generator: Adobe Illustrator 16.0.0, SVG Export Plug-In . SVG Version: 6.00 Build 0)  -->
<!DOCTYPE svg PUBLIC "-//W3C//DTD SVG 1.1//EN" "http://www.w3.org/Graphics/SVG/1.1/DTD/svg11.dtd">
<svg version="1.1" id="Messages_Icon" xmlns="http://www.w3.org/2000/svg" xmlns:xlink="http://www.w3.org/1999/xlink" x="0px"
	 y="0px" width="20px" height="20px" viewBox="0 0 20 20" enable-background="new 0 0 20 20" xml:space="preserve">
<path fill="#FFFFFF" d="M12,2c1.103,0,2,0.897,2,2v5c0,1.103-0.897,2-2,2H8H7.754l-0.239,0.06L2,12.438V9V4c0-1.103,0.897-2,2-2H12
	 M12,0H4C1.791,0,0,1.791,0,4v5v6l8-2h4c2.209,0,4-1.791,4-4V4C16,1.791,14.209,0,12,0L12,0z"/>
<path fill-rule="evenodd" clip-rule="evenodd" fill="#FFFFFF" d="M12,5.012C12,5.558,11.558,6,11.013,6H4.987
	C4.442,6,4,5.558,4,5.012V4.988C4,4.442,4.442,4,4.987,4h6.025C11.558,4,12,4.442,12,4.988V5.012z"/>
<path fill-rule="evenodd" clip-rule="evenodd" fill="#FFFFFF" d="M10,8.047C10,8.574,9.573,9,9.047,9H4.953C4.427,9,4,8.574,4,8.047
	V7.953C4,7.426,4.427,7,4.953,7h4.094C9.573,7,10,7.426,10,7.953V8.047z"/>
<path fill="#FFFFFF" d="M17,5.142v2.136C17.595,7.625,18,8.263,18,9v5v3.438l-5.516-1.379L12.246,16H12H8
	c-0.737,0-1.375-0.405-1.722-1H4.142C4.588,16.722,6.139,18,8,18h4l8,2v-6V9C20,7.139,18.722,5.588,17,5.142z"/>
</svg>
