<?xml version="1.0" encoding="utf-8"?>
<!-- Generator: Adobe Illustrator 16.0.0, SVG Export Plug-In . SVG Version: 6.00 Build 0)  -->
<!DOCTYPE svg PUBLIC "-//W3C//DTD SVG 1.1//EN" "http://www.w3.org/Graphics/SVG/1.1/DTD/svg11.dtd">
<svg version="1.1" id="Notifications_Icon" xmlns="http://www.w3.org/2000/svg" xmlns:xlink="http://www.w3.org/1999/xlink" x="0px"
	 y="0px" width="20px" height="20px" viewBox="0 0 20 20" enable-background="new 0 0 20 20" xml:space="preserve">
<g>
	<g>
		<path fill="#FFFFFF" d="M18.583,14.127c-0.023-0.018-2.241-1.758-2.241-7.52C16.342,2.964,13.497,0,10.004,0
			C6.511,0,3.668,2.964,3.668,6.607c0,5.762-2.22,7.502-2.228,7.508c-0.365,0.254-0.525,0.725-0.397,1.158
			c0.129,0.434,0.517,0.73,0.957,0.73h16.007c0.433,0,0.81-0.293,0.943-0.719C19.086,14.861,18.932,14.389,18.583,14.127z
			 M4.086,13.939C4.873,12.527,5.67,10.21,5.67,6.607c0-2.505,1.945-4.542,4.334-4.542c2.391,0,4.335,2.038,4.335,4.542
			c0,3.603,0.796,5.92,1.583,7.333H4.086z M12.418,17.146c-0.57-0.283-1.293-0.115-1.619,0.381
			c-0.126,0.191-0.327,0.326-0.567,0.383c-0.234,0.051-0.478,0.023-0.688-0.084c-0.138-0.07-0.255-0.174-0.336-0.297
			c-0.325-0.496-1.05-0.668-1.618-0.385c-0.568,0.283-0.766,0.914-0.44,1.408c0.286,0.438,0.7,0.803,1.194,1.055
			C8.854,19.867,9.421,20,9.997,20c0.281,0,0.564-0.031,0.843-0.096c0.856-0.197,1.573-0.676,2.016-1.348
			C13.182,18.061,12.984,17.432,12.418,17.146z"/>
	</g>
</g>
</svg>
