<?xml version="1.0" encoding="utf-8"?>
<!-- Generator: Adobe Illustrator 16.0.0, SVG Export Plug-In . SVG Version: 6.00 Build 0)  -->
<!DOCTYPE svg PUBLIC "-//W3C//DTD SVG 1.1//EN" "http://www.w3.org/Graphics/SVG/1.1/DTD/svg11.dtd">
<svg version="1.1" id="Overview_Icon" xmlns="http://www.w3.org/2000/svg" xmlns:xlink="http://www.w3.org/1999/xlink" x="0px"
	 y="0px" width="20px" height="20px" viewBox="0 0 20 20" enable-background="new 0 0 20 20" xml:space="preserve">
<path fill="#FFFFFF" d="M18,8v10h-2V8H18 M18,6h-2c-1.104,0-2,0.896-2,2v10c0,1.104,0.896,2,2,2h2c1.104,0,2-0.896,2-2V8
	C20,6.896,19.104,6,18,6L18,6z"/>
<path fill="#FFFFFF" d="M11,2v16H9V2H11 M11,0H9C7.896,0,7,0.896,7,2v16c0,1.104,0.896,2,2,2h2c1.104,0,2-0.896,2-2V2
	C13,0.896,12.104,0,11,0L11,0z"/>
<path fill="#FFFFFF" d="M4,14v4H2v-4H4 M4,12H2c-1.104,0-2,0.896-2,2v4c0,1.104,0.896,2,2,2h2c1.104,0,2-0.896,2-2v-4
	C6,12.896,5.104,12,4,12L4,12z"/>
</svg>
