<?xml version="1.0" encoding="utf-8"?>
<!-- Generator: Adobe Illustrator 16.0.0, SVG Export Plug-In . SVG Version: 6.00 Build 0)  -->
<!DOCTYPE svg PUBLIC "-//W3C//DTD SVG 1.1//EN" "http://www.w3.org/Graphics/SVG/1.1/DTD/svg11.dtd">
<svg version="1.1" id="Pin_Icon" xmlns="http://www.w3.org/2000/svg" xmlns:xlink="http://www.w3.org/1999/xlink" x="0px" y="0px"
	 width="20px" height="20px" viewBox="0 0 20 20" enable-background="new 0 0 20 20" xml:space="preserve">
<path fill="#FFFFFF" d="M10,2c3.309,0,6,2.773,6,6.182c0,4.78-4.517,9.104-5.994,9.768C8.557,17.272,4,12.836,4,8.182
	C4,4.773,6.691,2,10,2 M10,0C5.581,0,2,3.663,2,8.182C2,14.291,8.192,20,10,20c1.807,0,8-5.596,8-11.818C18,3.663,14.418,0,10,0
	L10,0z"/>
<path fill="#FFFFFF" d="M10,6c1.103,0,2,0.897,2,2c0,1.103-0.897,2-2,2c-1.103,0-2-0.897-2-2C8,6.897,8.897,6,10,6 M10,4
	C7.791,4,6,5.791,6,8s1.791,4,4,4s4-1.791,4-4S12.209,4,10,4L10,4z"/>
</svg>
