<?xml version="1.0" encoding="utf-8"?>
<!-- Generator: Adobe Illustrator 16.0.0, SVG Export Plug-In . SVG Version: 6.00 Build 0)  -->
<!DOCTYPE svg PUBLIC "-//W3C//DTD SVG 1.1//EN" "http://www.w3.org/Graphics/SVG/1.1/DTD/svg11.dtd">
<svg version="1.1" id="Pinned_Icon" xmlns="http://www.w3.org/2000/svg" xmlns:xlink="http://www.w3.org/1999/xlink" x="0px"
	 y="0px" width="20px" height="20px" viewBox="0 0 20 20" enable-background="new 0 0 20 20" xml:space="preserve">
<path fill="#FFFFFF" d="M17,20c-0.205,0-0.408-0.063-0.581-0.188L10,15.229l-6.419,4.584c-0.305,0.218-0.706,0.249-1.039,0.077
	C2.209,19.717,2,19.375,2,19V3c0-1.654,1.346-3,3-3h10c1.654,0,3,1.346,3,3v16c0,0.375-0.209,0.717-0.542,0.89
	C17.313,19.963,17.156,20,17,20z M10,13c0.203,0,0.407,0.063,0.581,0.186L16,17.057V3c0-0.551-0.448-1-1-1H5C4.448,2,4,2.448,4,3
	v14.057l5.419-3.871C9.593,13.063,9.796,13,10,13z"/>
</svg>
