<?xml version="1.0" encoding="utf-8"?>
<!-- Generator: Adobe Illustrator 16.0.0, SVG Export Plug-In . SVG Version: 6.00 Build 0)  -->
<!DOCTYPE svg PUBLIC "-//W3C//DTD SVG 1.1//EN" "http://www.w3.org/Graphics/SVG/1.1/DTD/svg11.dtd">
<svg version="1.1" id="Private_Icon" xmlns="http://www.w3.org/2000/svg" xmlns:xlink="http://www.w3.org/1999/xlink" x="0px"
	 y="0px" width="20px" height="20px" viewBox="0 0 20 20" enable-background="new 0 0 20 20" xml:space="preserve">
<g>
	<g>
		<path fill-rule="evenodd" clip-rule="evenodd" fill="#FFFFFF" d="M11,11H9c-0.553,0-1,0.447-1,1s0.447,1,1,1v1
			c0,0.553,0.447,1,1,1s1-0.447,1-1v-1c0.553,0,1-0.447,1-1S11.553,11,11,11z"/>
	</g>
</g>
<path fill="#FFFFFF" d="M16,6.142V6c0-3.313-2.687-6-6-6S4,2.687,4,6v0.142C2.278,6.588,1,8.139,1,10v6c0,2.209,1.791,4,4,4h10
	c2.209,0,4-1.791,4-4v-6C19,8.139,17.722,6.588,16,6.142z M10,2c2.206,0,4,1.794,4,4H6C6,3.794,7.794,2,10,2z M17,16
	c0,1.103-0.897,2-2,2H5c-1.103,0-2-0.897-2-2v-6c0-1.103,0.897-2,2-2h10c1.103,0,2,0.897,2,2V16z"/>
</svg>
