<?xml version="1.0" encoding="utf-8"?>
<!-- Generator: Adobe Illustrator 16.0.0, SVG Export Plug-In . SVG Version: 6.00 Build 0)  -->
<!DOCTYPE svg PUBLIC "-//W3C//DTD SVG 1.1//EN" "http://www.w3.org/Graphics/SVG/1.1/DTD/svg11.dtd">
<svg version="1.1" id="Public_Icon" xmlns="http://www.w3.org/2000/svg" xmlns:xlink="http://www.w3.org/1999/xlink" x="0px"
	 y="0px" width="20px" height="20px" viewBox="0 0 20 20" enable-background="new 0 0 20 20" xml:space="preserve">
<g>
	<g>
		<path fill="#FFFFFF" d="M20,10c0-5.522-4.478-10-10-10C4.477,0,0,4.478,0,10c0,5.523,4.477,10,10,10
			c1.566,0,3.043-0.37,4.362-1.013l0.01,0.018c0.051-0.028,0.086-0.059,0.135-0.087C17.763,17.27,20,13.9,20,10z M16.155,15.108
			c-0.648-1.745-2.802-3.14-4.653-3.408c-0.751-0.109-0.829-0.433-0.858-0.555C10.497,10.532,11,9.499,11.679,9.021
			c1.482-1.044,4.529-0.504,6.252-0.025C17.972,9.325,18,9.659,18,10C18,11.942,17.307,13.723,16.155,15.108z M14.715,3.547
			c-0.012,0-0.022,0.003-0.034,0.003c-1.374,0-2.609-0.561-3.518-1.456C12.479,2.286,13.688,2.796,14.715,3.547z M2,10
			c0-2.277,0.956-4.328,2.483-5.785c1.26,0.272,2.644,0.845,2.87,1.36C7.373,5.62,7.425,5.74,7.222,6.051
			c-0.295,0.451-0.603,0.88-0.896,1.29c-1.389,1.937-2.963,4.131-0.647,6.169c0.537,0.472,0.805,1.243,0.624,1.793
			c-0.184,0.557-0.815,0.773-1.402,0.86C3.128,14.695,2,12.479,2,10z M7.065,17.437c0.671-0.479,0.993-1.077,1.135-1.507
			c0.432-1.308-0.063-2.92-1.201-3.922c-0.814-0.716-0.672-1.24,0.951-3.502c0.31-0.432,0.633-0.883,0.944-1.359
			c0.66-1.009,0.521-1.85,0.289-2.377c-0.428-0.972-1.522-1.606-2.57-2.01C7.251,2.46,7.934,2.244,8.65,2.122
			c1.236,2.047,3.469,3.428,6.03,3.428c0.618,0,1.206-0.106,1.776-0.259c0.339,0.463,0.631,0.961,0.865,1.492
			c-1.979-0.428-4.906-0.729-6.795,0.603c-1.195,0.84-2.204,2.651-1.828,4.224c0.268,1.122,1.185,1.876,2.516,2.068
			c1.409,0.205,2.963,1.352,3.137,2.314c0.028,0.156,0.1,0.618-0.781,1.158C12.495,17.689,11.285,18,10,18
			C8.963,18,7.975,17.796,7.065,17.437z"/>
	</g>
</g>
</svg>
