<?xml version="1.0" encoding="utf-8"?>
<!-- Generator: Adobe Illustrator 16.0.0, SVG Export Plug-In . SVG Version: 6.00 Build 0)  -->
<!DOCTYPE svg PUBLIC "-//W3C//DTD SVG 1.1//EN" "http://www.w3.org/Graphics/SVG/1.1/DTD/svg11.dtd">
<svg version="1.1" id="Return_Icon" xmlns="http://www.w3.org/2000/svg" xmlns:xlink="http://www.w3.org/1999/xlink" x="0px"
	 y="0px" width="20px" height="20px" viewBox="0 0 20 20" enable-background="new 0 0 20 20" xml:space="preserve">
<path fill-rule="evenodd" clip-rule="evenodd" fill="#FFFFFF" d="M19.12,13.852c-1.047,2.187-2.896,3.834-5.203,4.638
	C12.922,18.835,11.905,19,10.906,19c-3.751,0-7.273-2.313-8.59-6.006c-0.186-0.52,0.086-1.092,0.606-1.277
	c0.52-0.189,1.092,0.085,1.277,0.605c1.301,3.646,5.367,5.563,9.06,4.278c1.801-0.627,3.241-1.909,4.057-3.614
	c0.802-1.675,0.9-3.56,0.277-5.308c-1.3-3.644-5.363-5.562-9.06-4.278C7.541,3.746,6.623,4.316,5.877,5.052l-2.33,2.163h2.852
	c0.553,0,1,0.448,1,1c0,0.552-0.447,1-1,1H1c-0.007,0-0.013-0.004-0.019-0.004C0.901,9.21,0.826,9.185,0.749,9.164
	C0.699,9.151,0.646,9.149,0.601,9.13C0.555,9.109,0.518,9.071,0.474,9.044c-0.066-0.043-0.137-0.08-0.191-0.138
	C0.277,8.901,0.271,8.9,0.267,8.896C0.231,8.857,0.218,8.811,0.189,8.769C0.147,8.707,0.101,8.649,0.073,8.579
	C0.045,8.507,0.039,8.432,0.028,8.355C0.021,8.307,0,8.264,0,8.214V2.882c0-0.552,0.447-1,1-1c0.552,0,1,0.448,1,1v3.041
	l2.495-2.315c0.935-0.922,2.111-1.653,3.382-2.096c4.728-1.646,9.933,0.819,11.6,5.495C20.281,9.261,20.154,11.69,19.12,13.852z"/>
</svg>
