<?xml version="1.0" encoding="utf-8"?>
<!-- Generator: Adobe Illustrator 16.0.0, SVG Export Plug-In . SVG Version: 6.00 Build 0)  -->
<!DOCTYPE svg PUBLIC "-//W3C//DTD SVG 1.1//EN" "http://www.w3.org/Graphics/SVG/1.1/DTD/svg11.dtd">
<svg version="1.1" id="Send_Message_Icon" xmlns="http://www.w3.org/2000/svg" xmlns:xlink="http://www.w3.org/1999/xlink" x="0px"
	 y="0px" width="20px" height="20px" viewBox="0 0 20 20" enable-background="new 0 0 20 20" xml:space="preserve">
<path fill="#FFFFFF" d="M19.993,0.94c-0.005-0.091-0.022-0.179-0.052-0.265c-0.011-0.031-0.021-0.062-0.035-0.093
	c-0.049-0.107-0.109-0.208-0.195-0.294s-0.188-0.147-0.294-0.195c-0.031-0.014-0.062-0.024-0.093-0.035
	c-0.086-0.03-0.173-0.046-0.263-0.052C19.034,0.005,19.009,0,18.981,0c-0.104,0.002-0.207,0.017-0.308,0.052L0.67,6.353
	C0.283,6.488,0.018,6.846,0.001,7.256C-0.016,7.666,0.22,8.044,0.594,8.21l7.75,3.446l3.444,7.75C11.948,19.769,12.308,20,12.702,20
	c0.014,0,0.027,0,0.041-0.002c0.409-0.016,0.768-0.28,0.903-0.668l6.302-18.003c0.035-0.101,0.05-0.206,0.052-0.309
	C20,0.991,19.994,0.967,19.993,0.94z M15.197,3.388L8.88,9.706L3.711,7.408L15.197,3.388z M12.592,16.288l-2.298-5.169l6.317-6.316
	L12.592,16.288z"/>
</svg>
