<?xml version="1.0" encoding="utf-8"?>
<!-- Generator: Adobe Illustrator 16.0.0, SVG Export Plug-In . SVG Version: 6.00 Build 0)  -->
<!DOCTYPE svg PUBLIC "-//W3C//DTD SVG 1.1//EN" "http://www.w3.org/Graphics/SVG/1.1/DTD/svg11.dtd">
<svg version="1.1" id="Settings_Icon" xmlns="http://www.w3.org/2000/svg" xmlns:xlink="http://www.w3.org/1999/xlink" x="0px"
	 y="0px" width="20px" height="20px" viewBox="0 0 20 20" enable-background="new 0 0 20 20" xml:space="preserve">
<g>
	<g>
		<path fill="#FFFFFF" d="M10,7c-1.657,0-3,1.343-3,3c0,1.655,1.343,2.999,3,2.999c1.656,0,3-1.344,3-2.999C13,8.343,11.656,7,10,7z
			 M10,11c-0.552,0-1-0.449-1-1c0-0.552,0.448-1,1-1s1,0.448,1,1C11,10.551,10.552,11,10,11z M17.363,12.638
			C18.817,12.638,20,11.453,20,10s-1.183-2.637-2.637-2.637h-0.135c-0.106,0-0.205-0.049-0.27-0.129
			c-0.014-0.054-0.032-0.106-0.055-0.158c-0.059-0.132-0.031-0.283,0.111-0.429c0.498-0.499,0.772-1.161,0.772-1.865
			c0-0.704-0.274-1.367-0.773-1.865c-0.997-0.997-2.693-1.035-3.769,0.042c-0.102,0.1-0.24,0.135-0.397,0.066
			c-0.129-0.055-0.212-0.18-0.212-0.391C12.637,1.182,11.454,0,10,0S7.363,1.182,7.363,2.636v0.135c0,0.106-0.049,0.206-0.129,0.271
			C7.181,3.056,7.128,3.073,7.077,3.096c-0.128,0.058-0.264,0.052-0.43-0.113c-0.996-0.994-2.731-0.995-3.73,0.003
			c-1.026,1.028-1.025,2.701,0.044,3.77C3.062,6.858,3.089,7.01,3.007,7.2c-0.05,0.136-0.176,0.227-0.371,0.229
			C1.183,7.429,0,8.612,0,10.065c0,1.454,1.183,2.637,2.636,2.637h0.138c0.138,0,0.263,0.083,0.322,0.222
			c0.058,0.132,0.03,0.284-0.113,0.429c-0.497,0.498-0.771,1.161-0.771,1.865c0.001,0.705,0.276,1.367,0.773,1.863
			c0.996,0.996,2.689,1.038,3.771-0.042c0.101-0.099,0.142-0.173,0.443-0.046c0.136,0.049,0.226,0.176,0.229,0.37
			c0,1.454,1.183,2.637,2.637,2.637s2.637-1.183,2.637-2.637v-0.137c0-0.139,0.083-0.263,0.222-0.322
			c0.129-0.058,0.263-0.051,0.428,0.112c0.999,0.995,2.735,0.996,3.73-0.002c0.498-0.499,0.771-1.162,0.771-1.866
			c-0.001-0.704-0.275-1.366-0.813-1.903c-0.101-0.104-0.129-0.256-0.064-0.398C17.029,12.72,17.154,12.638,17.363,12.638z
			 M15.666,14.7c0.121,0.12,0.188,0.279,0.188,0.449s-0.067,0.33-0.188,0.453c-0.239,0.241-0.605,0.295-0.956-0.058
			c-0.677-0.662-1.742-0.845-2.582-0.475c-0.864,0.369-1.423,1.214-1.425,2.153v0.14c0,0.352-0.286,0.636-0.637,0.636
			s-0.637-0.284-0.637-0.733c-0.023-0.97-0.627-1.815-1.479-2.125C7.649,15.007,7.329,14.939,7,14.939
			c-0.618,0-1.202,0.238-1.7,0.728c-0.24,0.24-0.66,0.241-0.901-0.002c-0.248-0.246-0.248-0.65,0.058-0.957
			c0.675-0.69,0.859-1.709,0.474-2.58c-0.368-0.864-1.214-1.424-2.154-1.426h-0.14C2.285,10.702,2,10.416,2,10.065
			s0.285-0.637,0.733-0.637c0.971-0.023,1.815-0.626,2.127-1.48c0.39-0.884,0.205-1.9-0.527-2.648
			C4.085,5.052,4.085,4.647,4.334,4.398c0.24-0.24,0.603-0.298,0.957,0.058C5.92,5.07,6.871,5.282,7.694,5
			c0.084-0.013,0.167-0.036,0.245-0.07c0.861-0.37,1.42-1.214,1.424-2.155v-0.14C9.363,2.285,9.649,2,10,2s0.637,0.285,0.637,0.712
			c0.002,0.937,0.561,1.782,1.414,2.148c0.865,0.38,1.884,0.222,2.649-0.527c0.241-0.24,0.656-0.243,0.901,0.001
			c0.12,0.12,0.187,0.279,0.187,0.449c0,0.169-0.066,0.331-0.242,0.507c-0.629,0.642-0.834,1.566-0.545,2.405
			c0.013,0.083,0.035,0.165,0.069,0.244c0.369,0.862,1.213,1.421,2.154,1.425h0.139C17.715,9.364,18,9.649,18,10
			c0,0.351-0.285,0.637-0.712,0.637c-0.938,0.002-1.783,0.561-2.146,1.411C14.749,12.933,14.933,13.951,15.666,14.7z"/>
	</g>
</g>
</svg>
