<?xml version="1.0" encoding="utf-8"?>
<!-- Generator: Adobe Illustrator 16.0.0, SVG Export Plug-In . SVG Version: 6.00 Build 0)  -->
<!DOCTYPE svg PUBLIC "-//W3C//DTD SVG 1.1//EN" "http://www.w3.org/Graphics/SVG/1.1/DTD/svg11.dtd">
<svg version="1.1" id="Share_Icon" xmlns="http://www.w3.org/2000/svg" xmlns:xlink="http://www.w3.org/1999/xlink" x="0px" y="0px"
	 width="20px" height="20px" viewBox="0 0 20 20" enable-background="new 0 0 20 20" xml:space="preserve">
<path fill="#FFFFFF" d="M15.336,12.6c-0.984,0-1.876,0.399-2.536,1.04l-4.602-2.714c0.077-0.297,0.13-0.604,0.13-0.925
	s-0.054-0.628-0.13-0.925l4.598-2.717C13.457,7,14.35,7.4,15.336,7.4C17.356,7.4,19,5.741,19,3.7S17.356,0,15.336,0
	s-3.665,1.66-3.665,3.7c0,0.321,0.054,0.628,0.13,0.925L7.203,7.342C6.543,6.7,5.651,6.3,4.665,6.3C2.644,6.3,1,7.959,1,10
	c0,2.04,1.645,3.699,3.665,3.699c0.986,0,1.878-0.399,2.538-1.041l4.601,2.713c-0.078,0.299-0.132,0.606-0.132,0.93
	c0,2.04,1.645,3.699,3.665,3.699S19,18.341,19,16.301C19,14.26,17.356,12.6,15.336,12.6z M15.336,2c0.921,0,1.67,0.763,1.67,1.7
	s-0.749,1.7-1.67,1.7c-0.922,0-1.672-0.763-1.672-1.7S14.414,2,15.336,2z M4.665,11.699c-0.921,0-1.671-0.763-1.671-1.699
	c0-0.938,0.75-1.7,1.671-1.7s1.67,0.763,1.67,1.7C6.335,10.937,5.586,11.699,4.665,11.699z M15.336,18
	c-0.922,0-1.672-0.763-1.672-1.699c0-0.308,0.087-0.592,0.228-0.841c0.003-0.005,0.006-0.008,0.009-0.012
	c0.003-0.005,0.002-0.01,0.005-0.015c0.292-0.497,0.821-0.834,1.431-0.834c0.921,0,1.67,0.763,1.67,1.701
	C17.006,17.237,16.257,18,15.336,18z"/>
</svg>
