<?xml version="1.0" encoding="utf-8"?>
<!-- Generator: Adobe Illustrator 16.0.0, SVG Export Plug-In . SVG Version: 6.00 Build 0)  -->
<!DOCTYPE svg PUBLIC "-//W3C//DTD SVG 1.1//EN" "http://www.w3.org/Graphics/SVG/1.1/DTD/svg11.dtd">
<svg version="1.1" id="Small_View_Icon" xmlns="http://www.w3.org/2000/svg" xmlns:xlink="http://www.w3.org/1999/xlink" x="0px"
	 y="0px" width="20px" height="20px" viewBox="0 0 20 20" enable-background="new 0 0 20 20" xml:space="preserve">
<path fill-rule="evenodd" clip-rule="evenodd" fill="#FFFFFF" d="M16,20H4c-2.209,0-4-1.791-4-4V4c0-2.209,1.791-4,4-4h12
	c2.209,0,4,1.791,4,4v12C20,18.209,18.209,20,16,20z M12,18v-4H8v4H12z M2,16c0,1.102,0.896,2,2,2h2v-4H2V16z M6,2H4
	C2.896,2,2,2.896,2,4v2h4V2z M2,8v4h4V8H2z M12,2H8v4h4V2z M8,8v4h4V8H8z M18,4c0-1.103-0.897-2-2-2h-2v4h4V4z M18,8h-4v4h4V8z
	 M18,14h-4v4h2c1.103,0,2-0.898,2-2V14z"/>
</svg>
