<?xml version="1.0" encoding="utf-8"?>
<!-- Generator: Adobe Illustrator 16.0.0, SVG Export Plug-In . SVG Version: 6.00 Build 0)  -->
<!DOCTYPE svg PUBLIC "-//W3C//DTD SVG 1.1//EN" "http://www.w3.org/Graphics/SVG/1.1/DTD/svg11.dtd">
<svg version="1.1" id="Status_Icon" xmlns="http://www.w3.org/2000/svg" xmlns:xlink="http://www.w3.org/1999/xlink" x="0px"
	 y="0px" width="20px" height="20px" viewBox="0 0 20 20" enable-background="new 0 0 20 20" xml:space="preserve">
<g>
	<path fill="#FFFFFF" d="M16,1H4C1.791,1,0,2.791,0,5v4v2v4c0,2.209,1.791,4,4,4h12c2.209,0,4-1.791,4-4v-4V9V5
		C20,2.791,18.209,1,16,1z M18,15c0,1.103-0.897,2-2,2H4c-1.103,0-2-0.897-2-2v-4h16V15z M18,9H2V5c0-1.103,0.897-2,2-2h12
		c1.103,0,2,0.897,2,2V9z"/>
	<rect x="13" y="13" fill="#FFFFFF" width="2" height="2"/>
	<rect x="9" y="13" fill="#FFFFFF" width="2" height="2"/>
	<rect x="5" y="5" fill="#FFFFFF" width="10" height="2"/>
	<rect x="5" y="13" fill="#FFFFFF" width="2" height="2"/>
</g>
</svg>
