<?xml version="1.0" encoding="utf-8"?>
<!-- Generator: Adobe Illustrator 16.0.0, SVG Export Plug-In . SVG Version: 6.00 Build 0)  -->
<!DOCTYPE svg PUBLIC "-//W3C//DTD SVG 1.1//EN" "http://www.w3.org/Graphics/SVG/1.1/DTD/svg11.dtd">
<svg version="1.1" id="Store_Icon" xmlns="http://www.w3.org/2000/svg" xmlns:xlink="http://www.w3.org/1999/xlink" x="0px" y="0px"
	 width="20px" height="20px" viewBox="0 0 20 20" enable-background="new 0 0 20 20" xml:space="preserve">
<path fill="#FFFFFF" d="M19.411,4.288l-1.894-3.301C17.174,0.378,16.537,0,15.855,0H4.047C3.37,0,2.734,0.376,2.39,0.981
	L0.492,4.288C-0.18,5.459-0.227,6.949,0.37,8.177C0.737,8.933,1.314,9.494,2,9.826V16c0,2.209,1.791,4,4,4h8c2.209,0,4-1.791,4-4
	V9.766c0.642-0.338,1.184-0.871,1.532-1.586C20.13,6.953,20.084,5.462,19.411,4.288z M2.227,5.289L4.047,2h11.732l1.896,3.289
	c0.343,0.598,0.365,1.388,0.059,2.018c-0.136,0.277-0.452,0.755-1.073,0.845c-0.567,0.088-1.203-0.159-1.624-0.674l-0.772-0.943
	L13.49,7.477c-0.725,0.883-2.046,0.883-2.767,0.001L9.95,6.532L9.176,7.477C8.452,8.361,7.13,8.359,6.41,7.478L5.636,6.531
	L4.862,7.478c-0.421,0.515-0.973,0.773-1.639,0.67C2.62,8.06,2.303,7.583,2.168,7.306C1.862,6.675,1.885,5.885,2.227,5.289z
	 M4,10.11c0.582-0.086,1.148-0.295,1.636-0.641c1.263,0.9,3.046,0.9,4.313,0c1.265,0.9,3.046,0.901,4.315,0
	c0.518,0.368,1.113,0.592,1.736,0.665V14H4V10.11z M14,18H6c-1.103,0-2-0.897-2-2h12C16,17.103,15.103,18,14,18z"/>
</svg>
