<?xml version="1.0" encoding="utf-8"?>
<!-- Generator: Adobe Illustrator 16.0.0, SVG Export Plug-In . SVG Version: 6.00 Build 0)  -->
<!DOCTYPE svg PUBLIC "-//W3C//DTD SVG 1.1//EN" "http://www.w3.org/Graphics/SVG/1.1/DTD/svg11.dtd">
<svg version="1.1" id="Streams_Icon" xmlns="http://www.w3.org/2000/svg" xmlns:xlink="http://www.w3.org/1999/xlink" x="0px"
	 y="0px" width="20px" height="20px" viewBox="0 0 20 20" enable-background="new 0 0 20 20" xml:space="preserve">
<path fill="#FFFFFF" d="M16,3c1.103,0,2,0.897,2,2v10c0,1.103-0.897,2-2,2H4c-1.103,0-2-0.897-2-2V5c0-1.103,0.897-2,2-2H16 M16,1H4
	C1.791,1,0,2.791,0,5v10c0,2.209,1.791,4,4,4h12c2.209,0,4-1.791,4-4V5C20,2.791,18.209,1,16,1L16,1z"/>
<path fill="#FFFFFF" d="M8.405,7c0.102,0,0.219,0.037,0.347,0.115l3.908,2.4c0.439,0.267,0.462,0.704,0.021,0.971l-3.928,2.4
	C8.624,12.964,8.507,13,8.405,13C8.157,13,8,12.782,8,12.408V7.593C8,7.217,8.157,7,8.405,7 M8.405,5C7.034,5,6,6.115,6,7.593v4.815
	C6,13.886,7.034,15,8.405,15c0.477,0,0.943-0.137,1.386-0.405l3.932-2.402c0.796-0.481,1.276-1.297,1.277-2.177
	c0.001-0.888-0.486-1.715-1.304-2.21L9.798,5.411C9.348,5.137,8.881,5,8.405,5L8.405,5z"/>
</svg>
