<?xml version="1.0" encoding="utf-8"?>
<!-- Generator: Adobe Illustrator 16.0.0, SVG Export Plug-In . SVG Version: 6.00 Build 0)  -->
<!DOCTYPE svg PUBLIC "-//W3C//DTD SVG 1.1//EN" "http://www.w3.org/Graphics/SVG/1.1/DTD/svg11.dtd">
<svg version="1.1" id="Three_Dots_Icon" xmlns="http://www.w3.org/2000/svg" xmlns:xlink="http://www.w3.org/1999/xlink" x="0px"
	 y="0px" width="22px" height="6px" viewBox="0 0 22 6" enable-background="new 0 0 22 6" xml:space="preserve">
<path fill-rule="evenodd" clip-rule="evenodd" fill="#FFFFFF" d="M19,6c-1.657,0-3-1.344-3-3c0-1.656,1.343-3,3-3s3,1.344,3,3
	C22,4.656,20.657,6,19,6z M19,2c-0.553,0-1,0.447-1,1c0,0.552,0.447,1,1,1c0.552,0,1-0.449,1-1C20,2.447,19.552,2,19,2z M11,6
	C9.343,6,8,4.656,8,3c0-1.656,1.343-3,3-3s3,1.344,3,3C14,4.656,12.657,6,11,6z M11,2c-0.553,0-1,0.447-1,1c0,0.552,0.447,1,1,1
	c0.552,0,1-0.449,1-1C12,2.447,11.552,2,11,2z M3,6C1.343,6,0,4.656,0,3c0-1.656,1.343-3,3-3c1.656,0,3,1.344,3,3
	C6,4.656,4.656,6,3,6z M3,2C2.447,2,2,2.447,2,3c0,0.552,0.447,1,1,1c0.552,0,1-0.449,1-1C4,2.447,3.552,2,3,2z"/>
</svg>
