<?xml version="1.0" encoding="utf-8"?>
<!-- Generator: Adobe Illustrator 16.0.0, SVG Export Plug-In . SVG Version: 6.00 Build 0)  -->
<!DOCTYPE svg PUBLIC "-//W3C//DTD SVG 1.1//EN" "http://www.w3.org/Graphics/SVG/1.1/DTD/svg11.dtd">
<svg version="1.1" id="Ticket_Icon" xmlns="http://www.w3.org/2000/svg" xmlns:xlink="http://www.w3.org/1999/xlink" x="0px"
	 y="0px" width="20px" height="20px" viewBox="0 0 20 20" enable-background="new 0 0 20 20" xml:space="preserve">
<path fill="#FFFFFF" d="M15,2v16h-1.537c-0.692-1.194-1.985-2-3.463-2s-2.771,0.806-3.463,2H5V2h1.537C7.229,3.195,8.522,4,10,4
	s2.771-0.805,3.463-2H15 M17,0h-5c0,1.104-0.896,2-2,2S8,1.104,8,0H3v20h5c0-1.104,0.896-2,2-2s2,0.896,2,2h5V0L17,0z"/>
<rect x="7" y="7" fill-rule="evenodd" clip-rule="evenodd" fill="#FFFFFF" width="6" height="2"/>
<rect x="7" y="11" fill-rule="evenodd" clip-rule="evenodd" fill="#FFFFFF" width="4" height="2"/>
</svg>
