<?xml version="1.0" encoding="utf-8"?>
<!-- Generator: Adobe Illustrator 16.0.0, SVG Export Plug-In . SVG Version: 6.00 Build 0)  -->
<!DOCTYPE svg PUBLIC "-//W3C//DTD SVG 1.1//EN" "http://www.w3.org/Graphics/SVG/1.1/DTD/svg11.dtd">
<svg version="1.1" id="Topics_Icon" xmlns="http://www.w3.org/2000/svg" xmlns:xlink="http://www.w3.org/1999/xlink" x="0px"
	 y="0px" width="20px" height="20px" viewBox="0 0 20 20" enable-background="new 0 0 20 20" xml:space="preserve">
<g>
	<path fill-rule="evenodd" clip-rule="evenodd" fill="#FFFFFF" d="M10.969,0H5C2.791,0,1,1.791,1,4v12c0,2.209,1.791,4,4,4h10
		c2.209,0,4-1.791,4-4V8.125L10.969,0z M11,2.877L16.064,8H13c-1.104,0-2-0.897-2-2V2.877z M15,18H5c-1.103,0-2-0.897-2-2V4
		c0-1.103,0.897-2,2-2h4v4c0,2.209,1.791,4,4,4h4v6C17,17.103,16.103,18,15,18z"/>
	<path fill-rule="evenodd" clip-rule="evenodd" fill="#FFFFFF" d="M13,14H7c-0.553,0-1,0.447-1,1s0.447,1,1,1h6c0.552,0,1-0.447,1-1
		S13.552,14,13,14z"/>
</g>
</svg>
