<?xml version="1.0" encoding="utf-8"?>
<!-- Generator: Adobe Illustrator 16.0.0, SVG Export Plug-In . SVG Version: 6.00 Build 0)  -->
<!DOCTYPE svg PUBLIC "-//W3C//DTD SVG 1.1//EN" "http://www.w3.org/Graphics/SVG/1.1/DTD/svg11.dtd">
<svg version="1.1" id="Videos_Icon" xmlns="http://www.w3.org/2000/svg" xmlns:xlink="http://www.w3.org/1999/xlink" x="0px"
	 y="0px" width="20px" height="20px" viewBox="0 0 20 20" enable-background="new 0 0 20 20" xml:space="preserve">
<path fill="#FFFFFF" d="M16,0H4C1.791,0,0,1.791,0,4v12c0,2.209,1.791,4,4,4h12c2.209,0,4-1.791,4-4V4C20,1.791,18.209,0,16,0z
	 M18,4v1h-2V2C17.103,2,18,2.897,18,4z M4,13H2V7h2V13z M16,7h2v6h-2V7z M14,2v16H6V2H14z M4,2v3H2V4C2,2.897,2.897,2,4,2z M2,16v-1
	h2v3C2.897,18,2,17.103,2,16z M16,18v-3h2v1C18,17.103,17.103,18,16,18z"/>
</svg>
