<?xml version="1.0" encoding="utf-8"?>
<!-- Generator: Adobe Illustrator 16.0.0, SVG Export Plug-In . SVG Version: 6.00 Build 0)  -->
<!DOCTYPE svg PUBLIC "-//W3C//DTD SVG 1.1//EN" "http://www.w3.org/Graphics/SVG/1.1/DTD/svg11.dtd">
<svg version="1.1" id="Wallet_Icon" xmlns="http://www.w3.org/2000/svg" xmlns:xlink="http://www.w3.org/1999/xlink" x="0px"
	 y="0px" width="20px" height="20px" viewBox="0 0 20 20" enable-background="new 0 0 20 20" xml:space="preserve">
<path fill="#FFFFFF" d="M20,9h-2V8c0-1.999-1.471-3.641-3.387-3.938l-0.395-1.548C13.832,0.999,12.527,0,11.104,0
	c-0.276,0-0.557,0.038-0.836,0.116l-7.79,2.194C1.155,2.684,0.2,3.72,0.033,5H0v3v1v7c0,2.209,1.791,4,4,4h10c2.209,0,4-1.791,4-4
	v-1h2V9z M10.81,2.042C10.908,2.014,11.006,2,11.104,2c0.543,0,1.025,0.415,1.178,1.008L12.534,4H4C3.924,4,3.853,4.018,3.778,4.022
	L10.81,2.042z M16,16c0,1.103-0.897,2-2,2H4c-1.103,0-2-0.897-2-2V9V8c0-1.103,0.897-2,2-2h10c1.103,0,2,0.897,2,2v1h-1
	c-1.657,0-3,1.344-3,3s1.343,3,3,3h1V16z M18,13h-3c-0.552,0-1-0.448-1-1s0.448-1,1-1h3V13z"/>
</svg>
