<?xml version="1.0" encoding="utf-8"?>
<!-- Generator: Adobe Illustrator 16.0.0, SVG Export Plug-In . SVG Version: 6.00 Build 0)  -->
<!DOCTYPE svg PUBLIC "-//W3C//DTD SVG 1.1//EN" "http://www.w3.org/Graphics/SVG/1.1/DTD/svg11.dtd">
<svg version="1.1" id="Weekly_Icon" xmlns="http://www.w3.org/2000/svg" xmlns:xlink="http://www.w3.org/1999/xlink" x="0px"
	 y="0px" width="20px" height="20px" viewBox="0 0 20 20" enable-background="new 0 0 20 20" xml:space="preserve">
<path fill-rule="evenodd" clip-rule="evenodd" fill="#FFFFFF" d="M16,20H4c-2.209,0-4-1.791-4-4.001V6c0-2.209,1.791-4,4-4h1V0h2v2
	h6V0h2v2h1c2.209,0,4,1.791,4,4v9.999C20,18.209,18.209,20,16,20z M18,6c0-1.103-0.897-2-2-2h-1v2h-2V4H7v2H5V4H4
	C2.896,4,2,4.897,2,6v9.999C2,17.103,2.896,18,4,18h12c1.103,0,2-0.897,2-2.001V6z M5,13.001h10v2H5V13.001z M5,9.001h10v2H5V9.001z
	"/>
</svg>
